<svg xmlns="http://www.w3.org/2000/svg" viewBox="0 0 128 128" role="img" aria-label="PMTP icon">
  <defs>
    <linearGradient id="bg" x1="0" x2="1" y1="0" y2="1">
      <stop offset="0%" stop-color="#1b2140"/>
      <stop offset="100%" stop-color="#0d132b"/>
    </linearGradient>
    <linearGradient id="path" x1="0" x2="1">
      <stop offset="0%" stop-color="#ffe88b"/>
      <stop offset="50%" stop-color="#8e5cf6"/>
      <stop offset="100%" stop-color="#70d7ff"/>
    </linearGradient>
  </defs>
  <rect x="10" y="10" width="108" height="108" rx="26" fill="url(#bg)"/>
  <rect x="28" y="28" width="72" height="72" rx="10" fill="#121933" stroke="#4f69a7" stroke-width="2.5"/>
  <path d="M44 43h40M44 56h40M44 69h24" stroke="#2f4e78" stroke-width="4" stroke-linecap="round" opacity=".6"/>
  <circle cx="37" cy="83" r="6" fill="#ffe88b"/>
  <circle cx="64" cy="83" r="6" fill="#8e5cf6"/>
  <circle cx="91" cy="83" r="6" fill="#70d7ff"/>
  <path d="M37 83c12-20 24-32 27-32s9 7 13 11c5 5 9 7 14 7" fill="none" stroke="url(#path)" stroke-width="6" stroke-linecap="round" stroke-linejoin="round"/>
  <path d="M100 58l7 11-13 1z" fill="#ffe88b"/>
  <text x="64" y="110" text-anchor="middle" font-size="14" font-family="Arial, sans-serif" font-weight="700" fill="#eef4ff">PMTP</text>
</svg>
