<svg xmlns="http://www.w3.org/2000/svg" viewBox="0 0 128 128" role="img" aria-label="PODEM icon">
  <defs>
    <linearGradient id="bg2" x1="0" x2="1" y1="0" y2="1">
      <stop offset="0%" stop-color="#15283d"/>
      <stop offset="100%" stop-color="#0b1528"/>
    </linearGradient>
    <linearGradient id="iot" x1="0" x2="1">
      <stop offset="0%" stop-color="#7ee0b2"/>
      <stop offset="100%" stop-color="#70d7ff"/>
    </linearGradient>
  </defs>
  <rect x="10" y="10" width="108" height="108" rx="26" fill="url(#bg2)"/>
  <rect x="34" y="30" width="60" height="50" rx="10" fill="#121b32" stroke="#53b8d8" stroke-width="2.5"/>
  <circle cx="64" cy="55" r="14" fill="none" stroke="#ffe88b" stroke-width="5"/>
  <path d="M64 41v-8M64 77v8M50 55h-8M86 55h8M54 45l-6-6M74 45l6-6M54 65l-6 6M74 65l6 6" stroke="url(#iot)" stroke-width="4" stroke-linecap="round"/>
  <path d="M45 94c7-10 13-15 19-15 7 0 11 5 19 15" fill="none" stroke="#7ee0b2" stroke-width="6" stroke-linecap="round"/>
  <circle cx="44" cy="95" r="5" fill="#70d7ff"/>
  <circle cx="84" cy="95" r="5" fill="#ffe88b"/>
  <text x="64" y="110" text-anchor="middle" font-size="14" font-family="Arial, sans-serif" font-weight="700" fill="#eef4ff">PODEM</text>
</svg>
